<?xml version="1.0" encoding="UTF-8"?>
<!DOCTYPE svg PUBLIC "-//W3C//DTD SVG 1.1//EN" "http://www.w3.org/Graphics/SVG/1.1/DTD/svg11.dtd">
<!-- Creator: CorelDRAW X7 -->
<svg xmlns="http://www.w3.org/2000/svg" xml:space="preserve" width="1214px" height="1214px" version="1.1" style="shape-rendering:geometricPrecision; text-rendering:geometricPrecision; image-rendering:optimizeQuality; fill-rule:evenodd; clip-rule:evenodd"
viewBox="0 0 378 378"
 xmlns:xlink="http://www.w3.org/1999/xlink">
 <defs>
  <style type="text/css">
   <![CDATA[
    .fil9 {fill:black}
    .fil4 {fill:#00349D}
    .fil22 {fill:#013072}
    .fil3 {fill:#014DB1}
    .fil21 {fill:#064881}
    .fil23 {fill:#070C50}
    .fil2 {fill:#0773C8}
    .fil26 {fill:#192B7A}
    .fil17 {fill:#1A1A1A}
    .fil16 {fill:#231F20}
    .fil1 {fill:#29ABE2}
    .fil6 {fill:#2B388F}
    .fil10 {fill:#343435}
    .fil12 {fill:#3B2314}
    .fil15 {fill:#404041}
    .fil20 {fill:#4D4D4D}
    .fil24 {fill:#72ACCB}
    .fil25 {fill:#8C7C8C}
    .fil14 {fill:#944C52}
    .fil19 {fill:#B3B3B3}
    .fil11 {fill:#C0DEED}
    .fil8 {fill:#DA6469}
    .fil13 {fill:#DF757B}
    .fil18 {fill:#E4F5FD}
    .fil7 {fill:#ECA0A4}
    .fil5 {fill:white}
    .fil27 {fill:#0870A6;fill-rule:nonzero}
    .fil0 {fill:#DCDDDD;fill-opacity:0.541176}
   ]]>
  </style>
 </defs>
 <g id="Layer_x0020_1">
  <metadata id="CorelCorpID_0Corel-Layer"/>
  <g id="_2589832573440">
   <polygon class="fil0" points="378,0 378,378 0,378 0,0 "/>
   <g>
    <path class="fil1" d="M345 309c1,-33 -1,-66 -7,-98 -7,-33 -20,-64 -37,-84 -18,-20 -41,-28 -62,-17 -8,5 -15,12 -23,13 -7,2 -14,-1 -20,-6 -10,-10 -16,-29 -25,-40 -12,-15 -28,-17 -42,-10 -14,7 -27,21 -38,37 -20,27 -37,58 -51,94l0 111 305 0z"/>
    <path class="fil2" d="M332 309l-12 0c-1,-4 -2,-8 -3,-13 -6,-33 -18,-64 -35,-84 -8,-11 -19,-18 -29,-21 0,-1 0,-3 0,-4l1 -2c0,0 0,0 0,0 1,-2 2,-4 3,-5 0,-1 0,-1 1,-1l42 0c11,19 20,44 25,69 4,20 6,41 7,61zm-280 -93l-12 0 0 -4c11,-25 24,-47 38,-67 2,3 4,5 7,7l0 9c-18,4 -33,22 -33,42l0 13zm146 -7c-5,0 -11,-3 -15,-7 -6,-6 -10,-15 -14,-23 1,0 2,0 3,0l76 0c-4,5 -9,9 -15,12 -1,1 -3,1 -5,2 0,-1 1,-1 1,-2 1,-1 2,-3 3,-5 0,-1 1,-4 -1,-4 0,0 0,0 0,0 -1,0 -2,0 -2,1 -1,0 -1,0 -2,1 -1,1 -2,2 -3,3 -2,2 -4,4 -6,6 -2,3 -3,7 -5,10 -4,2 -7,5 -11,5 -2,1 -3,1 -4,1zm-88 -52l0 -5c6,-3 10,-10 11,-17 5,-5 5,-15 5,-15l0 -19c3,-1 5,-1 8,-1 9,0 19,4 26,14 4,5 7,11 11,17 -9,1 -16,8 -16,17l0 9c-7,-6 -14,-9 -21,-9 -5,0 -10,2 -15,4 -3,1 -6,3 -9,5z"/>
    <path class="fil3" d="M320 309l-11 0c-7,-20 -15,-38 -27,-52 -11,-13 -25,-21 -39,-21 -7,0 -13,1 -19,5 -8,4 -15,11 -22,13 -2,0 -3,0 -4,0 -5,0 -11,-2 -15,-7 -1,0 -1,-1 -1,-1l41 -27c4,-1 7,-3 11,-6 0,0 0,0 0,0 3,-2 5,-3 7,-5 1,-2 2,-4 3,-5 0,-1 0,-1 0,-1l1 0 0 -1c1,-1 1,-2 2,-3l0 2 0 0 0 0c1,-1 2,-2 3,-3l0 0c1,-1 2,-2 2,-3 0,-1 1,-2 1,-2 0,-1 0,-1 0,-1 10,3 21,10 29,21 17,20 29,51 35,84 1,5 2,9 3,13zm-148 -79c-4,-8 -8,-16 -13,-23 -5,-6 -11,-10 -17,-12 -3,-17 -16,-30 -32,-34l0 -1 0 -3c3,-2 6,-4 9,-5 5,-2 10,-4 15,-4 7,0 14,3 21,9l0 5c0,8 6,15 14,17 4,8 8,17 14,23 4,4 10,7 15,7 1,0 2,0 4,-1 4,0 7,-3 11,-5 0,0 0,0 0,0 -1,2 -2,3 -3,5l-38 22zm56 -36c0,-1 0,-1 0,-1 2,-1 4,-1 5,-2 -1,1 -2,1 -3,2 -1,0 -1,0 -2,1z"/>
    <path class="fil4" d="M309 309l-211 0 12 -24 21 0 12 0 0 0 3 -9 -3 -8 2 -2 -2 -5 0 -22 6 17c1,3 4,5 7,5 1,0 3,0 4,-1l22 -14c0,0 0,1 1,1 4,5 10,7 15,7 1,0 2,0 4,0 7,-2 14,-9 22,-13 6,-4 12,-5 19,-5 14,0 28,8 39,21 12,14 20,32 27,52zm-212 0l-37 0 -4 -5 0 -19 9 0 20 0 12 24zm70 -77c-1,0 -2,0 -2,-1l-1 -4 -4 -14 -17 2 0 -12c0,-3 0,-5 -1,-8 6,2 12,6 17,12 5,7 9,15 13,23l-4 2c0,0 -1,0 -1,0z"/>
    <path class="fil5" d="M327 179l-155 0c-10,0 -17,-8 -17,-17l0 -14c0,-9 7,-17 17,-17l155 0c10,0 18,8 18,17l0 14c0,9 -8,17 -18,17z"/>
    <path class="fil6" d="M172 175c-7,0 -14,-6 -14,-13l0 -14c0,-7 7,-13 14,-13l155 0c8,0 14,6 14,13l0 14c0,7 -6,13 -14,13l-155 0z"/>
    <path class="fil5" d="M219 154l3 -4c-1,-2 -4,-3 -7,-3 -5,0 -9,4 -9,9 0,5 4,9 9,9 3,0 6,-2 7,-4l-3 -3c-1,1 -3,2 -4,2 -2,0 -3,-2 -3,-4 0,-3 1,-4 3,-4 2,0 3,1 4,2l0 0z"/>
    <path class="fil5" d="M232 147c-5,0 -10,4 -10,9 0,5 5,9 10,9 6,0 10,-4 10,-9 0,-5 -4,-9 -10,-9l0 0zm0 5c2,0 4,1 4,4 0,2 -2,4 -4,4 -2,0 -4,-2 -4,-4 0,-3 2,-4 4,-4l0 0z"/>
    <polygon class="fil5" points="243,147 243,164 248,164 248,155 255,164 260,164 260,147 255,147 255,156 248,147 "/>
    <polygon class="fil5" points="261,147 261,152 266,152 266,164 272,164 272,152 277,152 277,147 "/>
    <path class="fil5" d="M289 164l6 0 -7 -17 -6 0 -7 17 6 0 1 -2 6 0 1 2zm-6 -6l2 -5 2 5 -4 0z"/>
    <path class="fil5" d="M308 154l3 -4c-1,-2 -4,-3 -7,-3 -5,0 -9,4 -9,9 0,5 4,9 9,9 3,0 6,-2 7,-4l-3 -3c-1,1 -3,2 -4,2 -2,0 -3,-2 -3,-4 0,-3 1,-4 3,-4 2,0 3,1 4,2l0 0z"/>
    <polygon class="fil5" points="312,147 312,152 316,152 316,164 322,164 322,152 327,152 327,147 "/>
    <path class="fil7" d="M257 180c-2,3 -3,6 -5,9 -3,5 -5,9 -8,14 -1,1 -2,3 -3,5 -2,2 -4,3 -7,5 0,0 0,0 0,0 -4,3 -7,5 -11,6l-63 41c-4,2 -9,1 -11,-4l-10 -27 0 -14 21 -2 4 14 1 4c0,1 2,2 3,1l42 -24c1,-2 2,-3 3,-5 2,-3 3,-6 5,-10 2,-2 4,-4 6,-6 1,-1 2,-2 3,-3 1,-1 1,-1 2,-1 0,-1 1,-1 2,-1 2,0 1,3 1,4 -1,2 -2,4 -3,5 -1,1 -1,2 -1,3 1,-1 1,-1 2,-1 7,-3 14,-9 19,-15 1,-1 2,-2 3,-2 1,0 1,0 1,0 0,1 1,1 1,1 0,0 0,0 0,0 1,-1 1,-1 2,-1 0,0 1,0 2,0 1,1 0,3 -1,4z"/>
    <path class="fil8" d="M160 227c-5,0 -12,0 -17,-1l0 -11 17 -2 4 14c-1,0 -2,0 -4,0z"/>
    <polygon class="fil7" points="35,297 33,309 60,309 56,304 56,216 34,216 34,226 "/>
    <path class="fil8" d="M52 228c-5,0 -13,-1 -18,-2l0 0 0 -10 18 0 0 12z"/>
    <polygon class="fil9" points="143,309 143,283 53,283 53,309 "/>
    <polygon class="fil10" points="143,283 143,291 53,291 53,283 "/>
    <polygon class="fil9" points="61,294 58,294 58,282 61,282 "/>
    <polygon class="fil9" points="83,294 80,294 80,282 83,282 "/>
    <polygon class="fil9" points="115,294 112,294 112,282 115,282 "/>
    <polygon class="fil9" points="138,294 135,294 135,282 138,282 "/>
    <path class="fil11" d="M107 163c0,0 32,1 48,23 2,2 4,6 5,9l6 26 -27 2 -32 -60z"/>
    <path class="fil11" d="M89 163c0,0 -32,1 -48,23 -2,2 -4,6 -5,9l-6 27 27 1 32 -60z"/>
    <path class="fil11" d="M143 268l2 -2 -2 -5 0 -58c0,-23 -19,-43 -41,-43l-8 0c-23,0 -42,20 -42,43l0 58 -2 5 2 2 -3 8 3 9 0 0 13 0 66 0 12 0 0 0 3 -9 -3 -8z"/>
    <path class="fil12" d="M78 90l-9 0 0 30c0,0 0,14 9,17l0 -47z"/>
    <path class="fil12" d="M118 90l8 0 0 30c0,0 0,14 -8,17l0 -47z"/>
    <path class="fil7" d="M110 146l0 19c0,7 -5,13 -12,13 -7,0 -13,-6 -13,-13l0 -19c0,-7 6,-13 13,-13 3,0 6,2 9,4 2,2 3,5 3,9z"/>
    <path class="fil8" d="M110 160c-12,0 -20,-3 -25,-6l0 -2c3,2 7,3 11,3l4 0c4,0 7,-1 10,-3l0 8c0,0 0,0 0,0z"/>
    <path class="fil7" d="M121 98l0 35c0,12 -9,22 -21,22l-4 0c-12,0 -22,-10 -22,-22l0 -35c0,-12 10,-21 22,-21l4 0c12,0 21,9 21,21z"/>
    <path class="fil8" d="M103 110c-15,0 -24,-5 -29,-9l0 -3c0,-12 10,-21 22,-21l4 0c12,0 21,9 21,21l0 10c-7,1 -13,2 -18,2z"/>
    <path class="fil12" d="M126 89c0,-9 -13,-16 -28,-16 -16,0 -29,7 -29,16 0,3 2,6 4,8l0 7 1 15 2 0c1,0 2,-1 2,-2l0 -10c2,-1 2,-4 3,-5 5,2 10,3 17,3 6,0 12,-1 17,-3 0,1 1,4 3,5l0 10c0,1 1,2 2,2l1 0 1 -15 0 -7c3,-2 4,-5 4,-8z"/>
    <path class="fil5" d="M87 131c1,5 5,9 11,9 5,0 10,-4 10,-9l-21 0z"/>
    <path class="fil13" d="M100 127l-4 0c-1,0 -2,-1 -2,-2 0,-1 1,-1 2,-1l4 0c1,0 1,0 1,1 0,1 0,2 -1,2z"/>
    <path class="fil14" d="M90 117c0,0 0,0 0,0 -1,-1 -2,-1 -3,-1 -2,0 -3,0 -4,1 0,0 0,0 0,0 0,0 0,0 0,-1 1,-1 2,-1 4,-1 1,0 2,0 3,1 0,1 0,1 0,1 0,0 0,0 0,0z"/>
    <path class="fil12" d="M91 112c0,0 -1,-1 -1,-1 -1,-1 -2,-1 -3,-1 -2,0 -3,0 -4,1 -1,1 -1,1 -1,0 -1,0 -1,-1 0,-1 1,-1 3,-2 5,-2 1,0 3,1 5,2 0,0 0,1 0,1 -1,0 -1,1 -1,1z"/>
    <path class="fil14" d="M112 117c0,0 0,0 0,0 -1,-1 -2,-1 -3,-1 -1,0 -2,0 -3,1 0,0 -1,0 -1,0 0,0 0,0 0,-1 1,-1 3,-1 4,-1 1,0 3,0 4,1 0,1 0,1 0,1 0,0 -1,0 -1,0z"/>
    <path class="fil12" d="M113 112c0,0 0,-1 0,-1 -1,-1 -3,-1 -4,-1 -1,0 -3,0 -4,1 0,1 -1,1 -1,0 0,0 0,-1 0,-1 1,-1 3,-2 5,-2 2,0 4,1 5,2 0,0 0,1 0,1 0,0 0,1 -1,1z"/>
    <path class="fil9" d="M98 148l-6 0c-2,0 -3,-1 -3,-2 0,-2 1,-3 3,-3l6 0c1,0 2,1 2,3 0,1 -1,2 -2,2z"/>
    <path class="fil15" d="M90 147l-10 0c-3,0 -7,-3 -8,-6l0 0 -3 -15c0,0 0,-1 1,-1 0,0 1,0 1,1l2 14c2,3 4,5 7,5l10 0c0,0 1,0 1,1 0,0 -1,1 -1,1z"/>
    <path class="fil9" d="M74 113l0 15c0,0 0,1 -1,1l-2 0c0,0 0,0 0,-1 -3,0 -5,-3 -5,-8 0,-4 2,-8 5,-8 0,0 0,0 0,0l2 0c1,0 1,0 1,1z"/>
    <path class="fil15" d="M74 113l0 15c0,0 0,1 -1,1l-2 0c0,0 0,0 0,-1l0 -16c0,0 0,0 0,0l2 0c1,0 1,0 1,1z"/>
    <path class="fil9" d="M121 113l0 15c0,0 1,1 1,1l2 0c0,0 1,0 1,-1 2,0 5,-3 5,-8 0,-4 -3,-8 -5,-8 0,0 -1,0 -1,0l-2 0c0,0 -1,0 -1,1z"/>
    <path class="fil15" d="M121 113l0 15c0,0 1,1 1,1l2 0c0,0 1,0 1,-1l0 -16c0,0 -1,0 -1,0l-2 0c0,0 -1,0 -1,1z"/>
    <polygon class="fil16" points="99,179 99,285 97,285 97,179 "/>
    <path class="fil17" d="M133 191l0 14c0,0 0,0 0,0l-4 0c0,0 -1,0 -1,0l0 -14c0,0 1,0 1,0l4 0c0,0 0,0 0,0z"/>
    <path class="fil18" d="M132 226l-15 0c-1,0 -2,-1 -2,-3l0 -26 20 0 0 26c0,2 -2,3 -3,3z"/>
    <polygon class="fil5" points="135,200 115,200 115,197 135,197 "/>
    <polygon class="fil19" points="132,205 129,205 129,194 132,194 "/>
    <path class="fil20" d="M133 191l0 2 -5 0 0 -2c0,0 1,0 1,0l4 0c0,0 0,0 0,0z"/>
    <path class="fil21" d="M254 185l0 0 0 0 -1 2c0,0 0,0 0,0 0,-1 1,-1 1,-2z"/>
    <path class="fil22" d="M244 202c0,0 1,-1 1,-1l0 1 -1 0z"/>
    <path class="fil7" d="M254 177c0,0 -1,0 -1,-1 0,0 0,0 0,0 0,1 1,1 1,1 0,0 0,0 0,0z"/>
    <path class="fil8" d="M235 207c1,-6 9,-9 9,-9 0,0 0,0 0,-4 0,-4 2,-5 2,-5 0,0 0,-2 0,-4 -3,4 -5,8 -5,8 1,-3 3,-7 6,-10l0 0c0,-1 0,-1 1,-2 0,1 0,1 -1,1 0,1 0,2 0,3 0,1 0,2 0,3l0 0c0,1 1,1 1,2 0,1 0,1 0,1 0,1 0,1 0,1l-1 1 -2 8c0,0 -1,1 -1,1l-9 5zm18 -20c0,-2 0,-3 -1,-4 0,-1 -1,-2 -2,-2 0,0 -1,0 -1,0 0,0 0,0 0,0 2,-2 3,-4 4,-5 0,1 1,1 1,1 -1,1 -2,2 -3,3 1,0 3,2 3,5 0,1 -1,1 -1,2z"/>
    <path class="fil7" d="M253 192c0,0 -1,1 -1,2 0,1 -1,2 -2,3 -1,1 -2,2 -3,3l0 0 0 0c0,-1 0,-2 0,-3 0,0 -1,-1 0,-2 0,0 0,0 0,0 0,-1 0,-1 0,-1 1,-1 1,-3 1,-4 0,-1 -1,-1 -1,-2 0,-1 0,-2 0,-3 0,-1 0,-2 0,-3 1,-1 2,-1 2,-1 2,-1 3,0 3,2 1,2 1,5 1,9z"/>
    <polygon class="fil6" points="112,282 98,310 84,282 88,238 89,237 89,236 89,235 93,190 94,189 96,188 98,187 99,188 102,189 102,192 "/>
    <polygon class="fil23" points="103,238 88,238 89,237 89,236 103,236 "/>
    <polygon class="fil6" points="105,176 104,179 103,182 102,184 101,186 94,186 94,184 93,182 91,179 90,176 94,170 101,170 "/>
    <path class="fil24" d="M91 186l-1 -5 -2 -5 1 -1c1,0 1,0 2,1l-1 0 1 3 2 3 -2 4z"/>
    <path class="fil25" d="M91 176c-1,-1 -1,-1 -2,-1l5 -7 2 2 -2 0 -3 6z"/>
    <polygon class="fil26" points="93,182 93,182 91,179 90,176 91,176 94,170 96,170 "/>
    <path class="fil24" d="M104 186l-1 -4 1 -3 1 -3 0 0c0,-1 1,-1 1,-1l1 1 -2 5 -1 5z"/>
    <path class="fil25" d="M105 176l-4 -6 -2 0 2 -2 5 7c0,0 -1,0 -1,1z"/>
    <polygon class="fil26" points="103,182 99,170 99,170 101,170 105,176 105,176 104,179 "/>
    <polygon class="fil18" points="96,170 91,179 90,181 89,182 81,162 85,159 94,168 "/>
    <polygon class="fil18" points="114,162 106,182 105,181 104,179 99,170 101,168 110,159 "/>
    <polygon class="fil19" points="103,235 103,237 88,237 88,235 "/>
    <path class="fil5" d="M215 104l-4 0 0 -5c0,-1 -1,-1 -2,-1 -1,0 -2,0 -2,1l0 5 -5 0c0,0 -1,1 -1,2 0,1 1,1 1,1l5 0 0 5c0,1 1,2 2,2 1,0 2,-1 2,-2l0 -5 4 0c1,0 2,0 2,-1 0,-1 -1,-2 -2,-2z"/>
    <path class="fil5" d="M54 144l-4 0 0 -4c0,-1 -1,-2 -2,-2 -1,0 -1,1 -1,2l0 4 -5 0c-1,0 -1,1 -1,2 0,1 0,1 1,1l5 0 0 5c0,1 0,1 1,1 1,0 2,0 2,-1l0 -5 4 0c1,0 2,0 2,-1 0,-1 -1,-2 -2,-2z"/>
    <path class="fil5" d="M232 98l-3 0 0 -3c0,-1 0,-1 -1,-1 0,0 -1,0 -1,1l0 3 -3 0c0,0 -1,0 -1,1 0,1 1,1 1,1l3 0 0 3c0,1 1,1 1,1 1,0 1,0 1,-1l0 -3 3 0c1,0 1,0 1,-1 0,-1 0,-1 -1,-1z"/>
    <path class="fil5" d="M347 185l-4 0 0 -4c0,0 0,-1 -1,-1 -1,0 -1,1 -1,1l0 4 -4 0c-1,0 -1,1 -1,1 0,1 0,2 1,2l4 0 0 3c0,1 0,2 1,2 1,0 1,-1 1,-2l0 -3 4 0c1,0 1,-1 1,-2 0,0 0,-1 -1,-1z"/>
    <path class="fil5" d="M62 132l-3 0 0 -2c0,-1 -1,-1 -1,-1 -1,0 -1,0 -1,1l0 2 -3 0c-1,0 -1,1 -1,1 0,1 0,1 1,1l3 0 0 3c0,1 0,1 1,1 0,0 1,0 1,-1l0 -3 3 0c0,0 1,0 1,-1 0,0 -1,-1 -1,-1z"/>
    <path class="fil5" d="M313 118l-3 0 0 -3c0,0 0,-1 -1,-1 0,0 0,1 0,1l0 3 -3 0c-1,0 -1,0 -1,1 0,0 0,1 1,1l3 0 0 3c0,0 0,0 0,0 1,0 1,0 1,0l0 -3 3 0c1,0 1,-1 1,-1 0,-1 0,-1 -1,-1z"/>
    <path class="fil9" d="M127 116l-2 0 0 -26c0,-1 -1,-13 -25,-15l-5 0c-23,2 -24,14 -24,15l0 26 -3 0 0 -26c0,-1 1,-16 27,-18l0 0 5 0 0 0c27,2 27,17 27,18l0 26z"/>
    <path class="fil22" d="M247 200l0 -2c0,0 0,0 0,0 0,0 0,1 0,2l0 0z"/>
    <path class="fil8" d="M247 198l0 -1c0,1 0,1 0,1 0,0 0,0 0,0z"/>
    <path class="fil8" d="M247 200l0 0c0,-1 0,-2 0,-2 0,0 0,0 0,-1l0 0 0 -2c0,-1 0,-1 0,-1 0,-1 1,-2 1,-3 0,0 0,0 0,-1 0,-1 -1,-1 -1,-2 1,1 2,2 3,3 0,2 0,4 0,6l0 0c-1,1 -2,2 -3,3z"/>
    <path class="fil7" d="M246 190c-1,0 -1,0 -1,1 0,0 0,1 0,2 0,1 0,3 0,5 0,0 0,0 0,1 -1,0 -1,0 -1,0 -4,2 -8,4 -10,8 -1,1 -1,3 -2,4 -1,2 -3,4 -4,6 1,-1 2,-1 3,-2 3,-2 7,-4 11,-7 2,-1 5,-3 6,-6 0,-1 0,-2 1,-3 0,-3 0,-6 -1,-9 0,0 -1,-1 -2,-1 0,0 0,0 0,1z"/>
    <polygon class="fil23" points="102,192 93,190 94,189 96,188 99,188 102,189 "/>
    <polygon class="fil23" points="101,186 99,186 97,186 94,186 94,184 102,184 "/>
    <polygon class="fil6" points="102,190 93,190 94,185 102,185 "/>
    <path class="fil27" d="M173 165c1,0 1,0 1,0 0,0 -1,-4 -1,-11 0,0 0,-3 1,-3 0,0 1,2 1,3 2,5 2,7 4,7 1,0 0,-2 2,-7 1,-1 1,-3 2,-3 1,0 1,3 1,3 0,7 -2,11 -2,11 0,0 1,0 1,0l3 0c1,0 2,1 2,-8 0,-11 -2,-11 -2,-11l-2 0c-1,0 -1,0 -2,2 -3,3 -3,4 -3,4 -1,0 -1,-1 -3,-4 -1,-2 -2,-2 -3,-2l-2 0c0,0 -1,0 -1,11 0,9 0,8 1,8l2 0zm26 -19c0,0 -1,0 -1,0 0,1 0,2 0,2 0,3 -2,7 -3,7 -1,0 -3,-3 -3,-7 0,0 0,-1 0,-1 0,-1 -1,-1 -1,-1l-2 0c-1,0 -1,0 -1,2 0,6 5,10 5,10 0,1 -2,3 -2,6 0,1 0,1 1,1l3 0c0,0 1,0 1,0 0,-1 0,-1 0,-2 0,-7 6,-8 6,-16 0,-1 0,-1 -1,-1l-2 0z"/>
   </g>
  </g>
 </g>
</svg>
