<?xml version="1.0" encoding="UTF-8"?>
<!DOCTYPE svg PUBLIC "-//W3C//DTD SVG 1.1//EN" "http://www.w3.org/Graphics/SVG/1.1/DTD/svg11.dtd">
<!-- Creator: CorelDRAW X7 -->
<svg xmlns="http://www.w3.org/2000/svg" xml:space="preserve" width="1280px" height="1280px" version="1.1" style="shape-rendering:geometricPrecision; text-rendering:geometricPrecision; image-rendering:optimizeQuality; fill-rule:evenodd; clip-rule:evenodd"
viewBox="0 0 2555 2555"
 xmlns:xlink="http://www.w3.org/1999/xlink">
 <defs>
  <style type="text/css">
   <![CDATA[
    .fil18 {fill:#FEFEFE}
    .fil7 {fill:#FFF1AA}
    .fil8 {fill:#FDD75A}
    .fil2 {fill:#69C5D1}
    .fil4 {fill:#2353A2}
    .fil17 {fill:#035884}
    .fil10 {fill:url(#id0)}
    .fil16 {fill:url(#id1)}
    .fil14 {fill:url(#id2)}
    .fil5 {fill:url(#id3)}
    .fil6 {fill:url(#id4)}
    .fil11 {fill:url(#id5)}
    .fil0 {fill:url(#id6)}
    .fil12 {fill:url(#id7)}
    .fil3 {fill:url(#id8)}
    .fil13 {fill:url(#id9)}
    .fil9 {fill:url(#id10)}
    .fil1 {fill:url(#id11)}
    .fil15 {fill:url(#id12)}
   ]]>
  </style>
  <linearGradient id="id0" gradientUnits="userSpaceOnUse" x1="-101.901" y1="1493.03" x2="2813.94" y2="-85.6645">
   <stop offset="0" style="stop-opacity:1; stop-color:#035884"/>
   <stop offset="1" style="stop-opacity:1; stop-color:#FEFEFE"/>
  </linearGradient>
  <linearGradient id="id1" gradientUnits="userSpaceOnUse" xlink:href="#id0" x1="-101.901" y1="1493.03" x2="2813.94" y2="-85.6645">
  </linearGradient>
  <linearGradient id="id2" gradientUnits="userSpaceOnUse" xlink:href="#id0" x1="-101.906" y1="1493.03" x2="2813.94" y2="-85.6696">
  </linearGradient>
  <linearGradient id="id3" gradientUnits="userSpaceOnUse" xlink:href="#id0" x1="-101.891" y1="1493.03" x2="2813.94" y2="-85.6594">
  </linearGradient>
  <linearGradient id="id4" gradientUnits="userSpaceOnUse" xlink:href="#id0" x1="-101.896" y1="1493.03" x2="2813.94" y2="-85.6594">
  </linearGradient>
  <linearGradient id="id5" gradientUnits="userSpaceOnUse" xlink:href="#id0" x1="-101.896" y1="1493.02" x2="2813.94" y2="-85.6543">
  </linearGradient>
  <linearGradient id="id6" gradientUnits="userSpaceOnUse" xlink:href="#id0" x1="-101.885" y1="1493.03" x2="2813.93" y2="-85.6594">
  </linearGradient>
  <linearGradient id="id7" gradientUnits="userSpaceOnUse" xlink:href="#id0" x1="-101.875" y1="1493.03" x2="2813.93" y2="-85.6441">
  </linearGradient>
  <linearGradient id="id8" gradientUnits="userSpaceOnUse" xlink:href="#id0" x1="-101.891" y1="1493.03" x2="2813.93" y2="-85.6696">
  </linearGradient>
  <linearGradient id="id9" gradientUnits="userSpaceOnUse" xlink:href="#id0" x1="-101.921" y1="1493.04" x2="2813.94" y2="-85.6747">
  </linearGradient>
  <linearGradient id="id10" gradientUnits="userSpaceOnUse" xlink:href="#id0" x1="-101.916" y1="1493.04" x2="2813.94" y2="-85.6696">
  </linearGradient>
  <linearGradient id="id11" gradientUnits="userSpaceOnUse" xlink:href="#id0" x1="-101.901" y1="1493.03" x2="2813.94" y2="-85.6645">
  </linearGradient>
  <linearGradient id="id12" gradientUnits="userSpaceOnUse" xlink:href="#id0" x1="-101.911" y1="1493.04" x2="2813.93" y2="-85.6696">
  </linearGradient>
 </defs>
 <g id="Layer_x0020_1">
  <metadata id="CorelCorpID_0Corel-Layer"/>
  <g id="_2926505070544">
   <path class="fil0" d="M1598 637c87,1 167,37 224,94 59,59 95,139 95,228l0 0 0 0 -319 0 0 -322z"/>
   <path class="fil1" d="M1594 321c-87,-1 -165,-37 -223,-94 -57,-58 -93,-137 -93,-226l0 0 0 0 316 0 0 320z"/>
   <polygon class="fil2" points="2555,321 2236,321 2236,1 2555,1 "/>
   <polygon class="fil3" points="2555,321 2555,640 2236,640 2236,321 "/>
   <path class="fil4" d="M1913 1916c1,88 37,167 95,225 58,58 138,94 227,94l0 0 0 0 0 -319 -322 0z"/>
   <polygon class="fil2" points="2236,1597 1916,1597 1916,1278 2236,1278 "/>
   <polygon class="fil4" points="1277,322 957,322 957,2 1277,2 "/>
   <polygon class="fil5" points="2555,2235 2236,2235 2236,1916 2555,1916 "/>
   <polygon class="fil6" points="2555,2555 2236,2555 2236,2236 2555,2236 "/>
   <path class="fil7" d="M1279 1279l0 0c-88,0 -159,-72 -159,-160l0 0c0,-88 71,-160 159,-160l0 0c88,0 160,72 160,160l0 0c0,88 -72,160 -160,160z"/>
   <polygon class="fil2" points="2555,959 2555,1278 2236,1278 2236,959 "/>
   <path class="fil2" d="M2236 1597l0 0 0 -319 319 0c0,177 -143,319 -319,319z"/>
   <polygon class="fil2" points="1916,2555 1916,2236 2236,2236 2236,2555 "/>
   <path class="fil2" d="M1597 2236l0 0 319 0 0 319c-176,0 -319,-143 -319,-319z"/>
   <polygon class="fil4" points="2555,640 2555,959 2396,959 2396,640 "/>
   <polygon class="fil2" points="2396,640 2396,959 2236,959 2236,640 "/>
   <polygon class="fil7" points="2236,1119 1917,1119 1917,959 2236,959 "/>
   <polygon class="fil4" points="1913,162 1913,321 1594,321 1594,321 1754,321 1754,162 "/>
   <polygon class="fil8" points="1754,162 1754,321 1594,321 1594,162 "/>
   <polygon class="fil2" points="1754,2 1754,162 1594,162 1594,2 "/>
   <polygon class="fil9" points="1754,161 1754,321 1594,321 1594,161 "/>
   <polygon class="fil4" points="2236,1119 2236,1278 2077,1278 2077,1119 "/>
   <polygon class="fil4" points="1598,800 1598,959 1438,959 1438,800 "/>
   <polygon class="fil4" points="1758,478 1598,637 1598,478 "/>
   <polygon class="fil4" points="1915,1917 1598,2234 1598,1917 "/>
   <polygon class="fil4" points="2555,1916 2236,2236 2236,1916 "/>
   <polygon class="fil10" points="2236,2235 1917,2555 1917,2235 "/>
   <polygon class="fil11" points="2555,1 2236,321 2236,1 "/>
   <polygon class="fil12" points="2076,1278 1917,1437 1917,1278 "/>
   <polygon class="fil7" points="1598,1758 1598,1917 1438,1917 1438,1758 "/>
   <polygon class="fil7" points="957,2 957,161 798,161 798,2 "/>
   <polygon class="fil7" points="479,324 479,483 320,483 320,324 "/>
   <polygon class="fil2" points="1439,1120 1439,1279 1280,1279 1280,1120 "/>
   <polygon class="fil2" points="1437,640 1437,799 1278,799 1278,640 "/>
   <path class="fil2" d="M1756 1279l0 0c0,88 -71,159 -159,159l0 0 0 -159 159 0z"/>
   <path class="fil4" d="M1757 1758l0 0c0,88 -72,159 -159,159l-1 0 0 -159 160 0z"/>
   <polygon class="fil7" points="2236,800 2236,959 2076,959 2076,800 "/>
   <path class="fil4" d="M1913 320c1,88 37,167 95,225 58,58 139,94 228,94l0 0 0 0 0 -319 -323 0z"/>
   <path class="fil4" d="M957 322c0,87 36,166 93,223 58,58 138,94 227,94l0 0 0 0 0 -317 -320 0z"/>
   <path class="fil13" d="M1913 321c1,-88 37,-167 95,-225 58,-58 139,-94 228,-94l0 0 0 0 0 319 -323 0z"/>
   <path class="fil2" d="M319 322c87,-1 167,-36 224,-94 59,-58 95,-139 95,-228l0 0 0 0 -319 0 0 322z"/>
   <path class="fil7" d="M319 322c-88,-1 -167,-36 -225,-94 -58,-58 -94,-139 -94,-228l0 0 0 0 319 0 0 322z"/>
   <path class="fil14" d="M2235 1598l0 319 -322 0c0,-12 1,-23 2,-34 1,-4 1,-7 2,-11 1,-10 3,-20 6,-30 1,-4 1,-7 3,-11 2,-10 6,-20 10,-30 1,-4 3,-8 4,-11 5,-11 10,-21 16,-31 2,-3 4,-7 6,-10 7,-11 14,-21 22,-31 3,-3 6,-7 9,-10 5,-6 9,-11 15,-16 5,-5 10,-10 15,-15 5,-4 9,-7 13,-11 15,-11 30,-21 47,-30 7,-4 14,-8 21,-11 40,-18 85,-27 131,-28l0 1 0 0z"/>
   <path class="fil7" d="M2235 1872l0 11 -320 0c1,-4 1,-7 2,-11l318 0z"/>
   <path class="fil7" d="M2235 1831l0 11 -312 0c1,-4 1,-7 3,-11l309 0z"/>
   <path class="fil7" d="M2235 1790l0 11 -299 0c1,-4 3,-8 4,-11l295 0z"/>
   <path class="fil7" d="M2235 1749l0 10 -279 0c2,-3 4,-7 6,-10l273 0z"/>
   <path class="fil7" d="M2235 1708l0 10 -251 0c3,-3 6,-7 9,-10l242 0z"/>
   <path class="fil7" d="M2235 1666l0 11 -212 0c5,-4 9,-7 13,-11l199 0z"/>
   <path class="fil7" d="M2235 1625l0 11 -152 0c7,-4 14,-8 21,-11l131 0z"/>
   <polygon class="fil7" points="2555,338 2555,350 2395,350 2395,338 "/>
   <polygon class="fil7" points="2555,371 2555,383 2395,383 2395,371 "/>
   <polygon class="fil7" points="2555,405 2555,416 2395,416 2395,405 "/>
   <polygon class="fil7" points="1344,1064 1344,719 1356,719 1356,1064 "/>
   <polygon class="fil7" points="1311,1064 1311,719 1323,719 1323,1064 "/>
   <polygon class="fil7" points="1277,1064 1277,719 1289,719 1289,1064 "/>
   <polygon class="fil7" points="2555,438 2555,450 2395,450 2395,438 "/>
   <polygon class="fil7" points="2555,471 2555,483 2395,483 2395,471 "/>
   <polygon class="fil7" points="2555,504 2555,516 2395,516 2395,504 "/>
   <polygon class="fil7" points="2555,537 2555,549 2395,549 2395,537 "/>
   <polygon class="fil7" points="2555,571 2555,583 2395,583 2395,571 "/>
   <polygon class="fil7" points="2555,604 2555,616 2395,616 2395,604 "/>
   <path class="fil15" d="M2555 959l0 319 -10 0c-83,-5 -149,-74 -149,-159 0,-44 17,-84 46,-113 29,-29 69,-47 113,-47z"/>
   <polygon class="fil16" points="1917,1279 1598,1279 1598,959 1917,959 "/>
   <path class="fil7" d="M2555 1916l-319 0 0 -319c176,0 319,143 319,319l0 0z"/>
   <path class="fil17" d="M802 216c0,6 -5,11 -11,11 -6,0 -11,-5 -11,-11 0,-6 5,-11 11,-11 6,0 11,5 11,11z"/>
   <path class="fil17" d="M802 273c0,6 -5,10 -11,10 -6,0 -11,-4 -11,-10 0,-6 5,-11 11,-11 6,0 11,5 11,11z"/>
   <path class="fil17" d="M856 216c0,6 -4,11 -10,11 -6,0 -11,-5 -11,-11 0,-6 5,-11 11,-11 6,0 10,5 10,11z"/>
   <path class="fil17" d="M856 273c0,6 -4,10 -10,10 -6,0 -11,-4 -11,-10 0,-6 5,-11 11,-11 6,0 10,5 10,11z"/>
   <path class="fil17" d="M691 216c0,6 -5,11 -11,11 -6,0 -11,-5 -11,-11 0,-6 5,-11 11,-11 6,0 11,5 11,11z"/>
   <path class="fil17" d="M691 273c0,6 -5,10 -11,10 -6,0 -11,-4 -11,-10 0,-6 5,-11 11,-11 6,0 11,5 11,11z"/>
   <path class="fil17" d="M745 216c0,6 -4,11 -10,11 -6,0 -11,-5 -11,-11 0,-6 5,-11 11,-11 6,0 10,5 10,11z"/>
   <path class="fil17" d="M745 273c0,6 -4,10 -10,10 -6,0 -11,-4 -11,-10 0,-6 5,-11 11,-11 6,0 10,5 10,11z"/>
   <path class="fil17" d="M1023 216c0,6 -4,11 -10,11 -6,0 -11,-5 -11,-11 0,-6 5,-11 11,-11 6,0 10,5 10,11z"/>
   <path class="fil17" d="M1023 273c0,6 -4,10 -10,10 -6,0 -11,-4 -11,-10 0,-6 5,-11 11,-11 6,0 10,5 10,11z"/>
   <path class="fil17" d="M1078 216c0,6 -5,11 -11,11 -5,0 -10,-5 -10,-11 0,-6 5,-11 10,-11 6,0 11,5 11,11z"/>
   <path class="fil17" d="M1078 273c0,6 -5,10 -11,10 -5,0 -10,-4 -10,-10 0,-6 5,-11 10,-11 6,0 11,5 11,11z"/>
   <path class="fil17" d="M912 216c0,6 -4,11 -10,11 -6,0 -11,-5 -11,-11 0,-6 5,-11 11,-11 6,0 10,5 10,11z"/>
   <path class="fil17" d="M912 273c0,6 -4,10 -10,10 -6,0 -11,-4 -11,-10 0,-6 5,-11 11,-11 6,0 10,5 10,11z"/>
   <path class="fil17" d="M967 216c0,6 -5,11 -11,11 -5,0 -10,-5 -10,-11 0,-6 5,-11 10,-11 6,0 11,5 11,11z"/>
   <path class="fil17" d="M967 273c0,6 -5,10 -11,10 -5,0 -10,-4 -10,-10 0,-6 5,-11 10,-11 6,0 11,5 11,11z"/>
   <path class="fil17" d="M1975 848c0,6 -4,11 -10,11 -6,0 -11,-5 -11,-11 0,-6 5,-11 11,-11 6,0 10,5 10,11z"/>
   <path class="fil17" d="M1975 904c0,6 -4,11 -10,11 -6,0 -11,-5 -11,-11 0,-6 5,-11 11,-11 6,0 10,5 10,11z"/>
   <path class="fil17" d="M2030 848c0,6 -5,11 -11,11 -6,0 -10,-5 -10,-11 0,-6 4,-11 10,-11 6,0 11,5 11,11z"/>
   <path class="fil17" d="M2030 904c0,6 -5,11 -11,11 -6,0 -10,-5 -10,-11 0,-6 4,-11 10,-11 6,0 11,5 11,11z"/>
   <path class="fil17" d="M1364 1949c0,6 -5,11 -11,11 -6,0 -10,-5 -10,-11 0,-6 4,-10 10,-10 6,0 11,4 11,10z"/>
   <path class="fil17" d="M1364 2006c0,6 -5,10 -11,10 -6,0 -10,-4 -10,-10 0,-6 4,-11 10,-11 6,0 11,5 11,11z"/>
   <path class="fil17" d="M1419 1949c0,6 -5,11 -11,11 -6,0 -11,-5 -11,-11 0,-6 5,-10 11,-10 6,0 11,4 11,10z"/>
   <path class="fil17" d="M1419 2006c0,6 -5,10 -11,10 -6,0 -11,-4 -11,-10 0,-6 5,-11 11,-11 6,0 11,5 11,11z"/>
   <path class="fil18" d="M2361 2321c0,16 -13,28 -28,28 -16,0 -29,-12 -29,-28 0,-16 13,-28 29,-28 15,0 28,12 28,28z"/>
   <path class="fil18" d="M2361 2469c0,16 -13,29 -28,29 -16,0 -29,-13 -29,-29 0,-15 13,-28 29,-28 15,0 28,13 28,28z"/>
   <path class="fil18" d="M2505 2321c0,16 -12,28 -28,28 -16,0 -28,-12 -28,-28 0,-16 12,-28 28,-28 16,0 28,12 28,28z"/>
   <path class="fil18" d="M2505 2469c0,16 -12,29 -28,29 -16,0 -28,-13 -28,-29 0,-15 12,-28 28,-28 16,0 28,13 28,28z"/>
   <path class="fil7" d="M1394 403c0,16 -13,29 -28,29 -16,0 -29,-13 -29,-29 0,-16 13,-28 29,-28 15,0 28,12 28,28z"/>
   <path class="fil7" d="M1394 551c0,16 -13,29 -28,29 -16,0 -29,-13 -29,-29 0,-15 13,-28 29,-28 15,0 28,13 28,28z"/>
   <path class="fil7" d="M1538 403c0,16 -12,29 -28,29 -16,0 -28,-13 -28,-29 0,-16 12,-28 28,-28 16,0 28,12 28,28z"/>
   <path class="fil7" d="M1538 551c0,16 -12,29 -28,29 -16,0 -28,-13 -28,-29 0,-15 12,-28 28,-28 16,0 28,13 28,28z"/>
  </g>
 </g>
</svg>
