<?xml version="1.0" encoding="UTF-8"?>
<!DOCTYPE svg PUBLIC "-//W3C//DTD SVG 1.1//EN" "http://www.w3.org/Graphics/SVG/1.1/DTD/svg11.dtd">
<!-- Creator: CorelDRAW X7 -->
<svg xmlns="http://www.w3.org/2000/svg" xml:space="preserve" width="78.4268mm" height="79.4507mm" version="1.1" style="shape-rendering:geometricPrecision; text-rendering:geometricPrecision; image-rendering:optimizeQuality; fill-rule:evenodd; clip-rule:evenodd"
viewBox="0 0 1442 1461"
 xmlns:xlink="http://www.w3.org/1999/xlink">
 <defs>
  <style type="text/css">
   <![CDATA[
    .fil28 {fill:url(#id72)}
    .fil4 {fill:url(#id73)}
    .fil16 {fill:url(#id74)}
    .fil17 {fill:url(#id75)}
    .fil29 {fill:url(#id76)}
    .fil5 {fill:url(#id77)}
    .fil21 {fill:url(#id78)}
    .fil33 {fill:url(#id79)}
    .fil32 {fill:url(#id80)}
    .fil8 {fill:url(#id81)}
    .fil20 {fill:url(#id82)}
    .fil9 {fill:url(#id83)}
    .fil26 {fill:url(#id84)}
    .fil2 {fill:url(#id85)}
    .fil14 {fill:url(#id86)}
    .fil30 {fill:url(#id87)}
    .fil6 {fill:url(#id88)}
    .fil18 {fill:url(#id89)}
    .fil15 {fill:url(#id90)}
    .fil27 {fill:url(#id91)}
    .fil3 {fill:url(#id92)}
    .fil19 {fill:url(#id93)}
    .fil31 {fill:url(#id94)}
    .fil7 {fill:url(#id95)}
    .fil24 {fill:url(#id96)}
    .fil0 {fill:url(#id97)}
    .fil12 {fill:url(#id98)}
    .fil13 {fill:url(#id99)}
    .fil25 {fill:url(#id100)}
    .fil1 {fill:url(#id101)}
    .fil34 {fill:url(#id102)}
    .fil10 {fill:url(#id103)}
    .fil22 {fill:url(#id104)}
    .fil23 {fill:url(#id105)}
    .fil35 {fill:url(#id106)}
    .fil11 {fill:url(#id107)}
   ]]>
  </style>
    <mask id="id0">
  <linearGradient id="id1" gradientUnits="userSpaceOnUse" x1="62.6355" y1="51.3295" x2="1368.24" y2="1694.44">
   <stop offset="0" style="stop-opacity:1; stop-color:white"/>
   <stop offset="1" style="stop-opacity:0; stop-color:white"/>
  </linearGradient>
     <rect style="fill:url(#id1)" width="104" height="104"/>
    </mask>
    <mask id="id2">
  <linearGradient id="id3" gradientUnits="userSpaceOnUse" x1="62.6355" y1="51.3295" x2="1368.24" y2="1694.44">
   <stop offset="0" style="stop-opacity:1; stop-color:white"/>
   <stop offset="1" style="stop-opacity:0; stop-color:white"/>
  </linearGradient>
     <rect style="fill:url(#id3)" y="272" width="104" height="104"/>
    </mask>
    <mask id="id4">
  <linearGradient id="id5" gradientUnits="userSpaceOnUse" x1="62.6355" y1="51.3295" x2="1368.24" y2="1694.44">
   <stop offset="0" style="stop-opacity:1; stop-color:white"/>
   <stop offset="1" style="stop-opacity:0; stop-color:white"/>
  </linearGradient>
     <rect style="fill:url(#id5)" x="265" width="104" height="104"/>
    </mask>
    <mask id="id6">
  <linearGradient id="id7" gradientUnits="userSpaceOnUse" x1="62.6355" y1="51.3295" x2="1368.24" y2="1694.44">
   <stop offset="0" style="stop-opacity:1; stop-color:white"/>
   <stop offset="1" style="stop-opacity:0; stop-color:white"/>
  </linearGradient>
     <rect style="fill:url(#id7)" x="265" y="272" width="104" height="104"/>
    </mask>
    <mask id="id8">
  <linearGradient id="id9" gradientUnits="userSpaceOnUse" x1="62.6355" y1="51.3295" x2="1368.24" y2="1694.44">
   <stop offset="0" style="stop-opacity:1; stop-color:white"/>
   <stop offset="1" style="stop-opacity:0; stop-color:white"/>
  </linearGradient>
     <rect style="fill:url(#id9)" x="1073" width="104" height="104"/>
    </mask>
    <mask id="id10">
  <linearGradient id="id11" gradientUnits="userSpaceOnUse" x1="62.6355" y1="51.3295" x2="1368.24" y2="1694.44">
   <stop offset="0" style="stop-opacity:1; stop-color:white"/>
   <stop offset="1" style="stop-opacity:0; stop-color:white"/>
  </linearGradient>
     <rect style="fill:url(#id11)" x="1073" y="272" width="104" height="104"/>
    </mask>
    <mask id="id12">
  <linearGradient id="id13" gradientUnits="userSpaceOnUse" x1="62.6355" y1="51.3295" x2="1368.24" y2="1694.44">
   <stop offset="0" style="stop-opacity:1; stop-color:white"/>
   <stop offset="1" style="stop-opacity:0; stop-color:white"/>
  </linearGradient>
     <rect style="fill:url(#id13)" x="1338" width="104" height="104"/>
    </mask>
    <mask id="id14">
  <linearGradient id="id15" gradientUnits="userSpaceOnUse" x1="62.6355" y1="51.3295" x2="1368.24" y2="1694.44">
   <stop offset="0" style="stop-opacity:1; stop-color:white"/>
   <stop offset="1" style="stop-opacity:0; stop-color:white"/>
  </linearGradient>
     <rect style="fill:url(#id15)" x="1338" y="272" width="104" height="104"/>
    </mask>
    <mask id="id16">
  <linearGradient id="id17" gradientUnits="userSpaceOnUse" x1="62.6355" y1="51.3295" x2="1368.24" y2="1694.44">
   <stop offset="0" style="stop-opacity:1; stop-color:white"/>
   <stop offset="1" style="stop-opacity:0; stop-color:white"/>
  </linearGradient>
     <rect style="fill:url(#id17)" x="536" width="104" height="104"/>
    </mask>
    <mask id="id18">
  <linearGradient id="id19" gradientUnits="userSpaceOnUse" x1="62.6355" y1="51.3295" x2="1368.24" y2="1694.44">
   <stop offset="0" style="stop-opacity:1; stop-color:white"/>
   <stop offset="1" style="stop-opacity:0; stop-color:white"/>
  </linearGradient>
     <rect style="fill:url(#id19)" x="536" y="272" width="104" height="104"/>
    </mask>
    <mask id="id20">
  <linearGradient id="id21" gradientUnits="userSpaceOnUse" x1="62.6355" y1="51.3295" x2="1368.24" y2="1694.44">
   <stop offset="0" style="stop-opacity:1; stop-color:white"/>
   <stop offset="1" style="stop-opacity:0; stop-color:white"/>
  </linearGradient>
     <rect style="fill:url(#id21)" x="801" width="104" height="104"/>
    </mask>
    <mask id="id22">
  <linearGradient id="id23" gradientUnits="userSpaceOnUse" x1="62.6355" y1="51.3295" x2="1368.24" y2="1694.44">
   <stop offset="0" style="stop-opacity:1; stop-color:white"/>
   <stop offset="1" style="stop-opacity:0; stop-color:white"/>
  </linearGradient>
     <rect style="fill:url(#id23)" x="801" y="272" width="104" height="104"/>
    </mask>
    <mask id="id24">
  <linearGradient id="id25" gradientUnits="userSpaceOnUse" x1="62.6355" y1="51.3295" x2="1368.24" y2="1694.44">
   <stop offset="0" style="stop-opacity:1; stop-color:white"/>
   <stop offset="1" style="stop-opacity:0; stop-color:white"/>
  </linearGradient>
     <rect style="fill:url(#id25)" y="542" width="104" height="104"/>
    </mask>
    <mask id="id26">
  <linearGradient id="id27" gradientUnits="userSpaceOnUse" x1="62.6355" y1="51.3295" x2="1368.24" y2="1694.44">
   <stop offset="0" style="stop-opacity:1; stop-color:white"/>
   <stop offset="1" style="stop-opacity:0; stop-color:white"/>
  </linearGradient>
     <rect style="fill:url(#id27)" y="814" width="104" height="104"/>
    </mask>
    <mask id="id28">
  <linearGradient id="id29" gradientUnits="userSpaceOnUse" x1="62.6355" y1="51.3295" x2="1368.24" y2="1694.44">
   <stop offset="0" style="stop-opacity:1; stop-color:white"/>
   <stop offset="1" style="stop-opacity:0; stop-color:white"/>
  </linearGradient>
     <rect style="fill:url(#id29)" x="265" y="542" width="104" height="104"/>
    </mask>
    <mask id="id30">
  <linearGradient id="id31" gradientUnits="userSpaceOnUse" x1="62.6355" y1="51.3295" x2="1368.24" y2="1694.44">
   <stop offset="0" style="stop-opacity:1; stop-color:white"/>
   <stop offset="1" style="stop-opacity:0; stop-color:white"/>
  </linearGradient>
     <rect style="fill:url(#id31)" x="265" y="814" width="104" height="104"/>
    </mask>
    <mask id="id32">
  <linearGradient id="id33" gradientUnits="userSpaceOnUse" x1="62.6355" y1="51.3295" x2="1368.24" y2="1694.44">
   <stop offset="0" style="stop-opacity:1; stop-color:white"/>
   <stop offset="1" style="stop-opacity:0; stop-color:white"/>
  </linearGradient>
     <rect style="fill:url(#id33)" x="1073" y="542" width="104" height="104"/>
    </mask>
    <mask id="id34">
  <linearGradient id="id35" gradientUnits="userSpaceOnUse" x1="62.6355" y1="51.3295" x2="1368.24" y2="1694.44">
   <stop offset="0" style="stop-opacity:1; stop-color:white"/>
   <stop offset="1" style="stop-opacity:0; stop-color:white"/>
  </linearGradient>
     <rect style="fill:url(#id35)" x="1073" y="814" width="104" height="104"/>
    </mask>
    <mask id="id36">
  <linearGradient id="id37" gradientUnits="userSpaceOnUse" x1="62.6355" y1="51.3295" x2="1368.24" y2="1694.44">
   <stop offset="0" style="stop-opacity:1; stop-color:white"/>
   <stop offset="1" style="stop-opacity:0; stop-color:white"/>
  </linearGradient>
     <rect style="fill:url(#id37)" x="1338" y="542" width="104" height="104"/>
    </mask>
    <mask id="id38">
  <linearGradient id="id39" gradientUnits="userSpaceOnUse" x1="62.6355" y1="51.3295" x2="1368.24" y2="1694.44">
   <stop offset="0" style="stop-opacity:1; stop-color:white"/>
   <stop offset="1" style="stop-opacity:0; stop-color:white"/>
  </linearGradient>
     <rect style="fill:url(#id39)" x="1338" y="814" width="104" height="104"/>
    </mask>
    <mask id="id40">
  <linearGradient id="id41" gradientUnits="userSpaceOnUse" x1="62.6355" y1="51.3295" x2="1368.24" y2="1694.44">
   <stop offset="0" style="stop-opacity:1; stop-color:white"/>
   <stop offset="1" style="stop-opacity:0; stop-color:white"/>
  </linearGradient>
     <rect style="fill:url(#id41)" x="536" y="542" width="104" height="104"/>
    </mask>
    <mask id="id42">
  <linearGradient id="id43" gradientUnits="userSpaceOnUse" x1="62.6355" y1="51.3295" x2="1368.24" y2="1694.44">
   <stop offset="0" style="stop-opacity:1; stop-color:white"/>
   <stop offset="1" style="stop-opacity:0; stop-color:white"/>
  </linearGradient>
     <rect style="fill:url(#id43)" x="536" y="814" width="104" height="104"/>
    </mask>
    <mask id="id44">
  <linearGradient id="id45" gradientUnits="userSpaceOnUse" x1="62.6355" y1="51.3295" x2="1368.24" y2="1694.44">
   <stop offset="0" style="stop-opacity:1; stop-color:white"/>
   <stop offset="1" style="stop-opacity:0; stop-color:white"/>
  </linearGradient>
     <rect style="fill:url(#id45)" x="801" y="542" width="104" height="104"/>
    </mask>
    <mask id="id46">
  <linearGradient id="id47" gradientUnits="userSpaceOnUse" x1="62.6355" y1="51.3295" x2="1368.24" y2="1694.44">
   <stop offset="0" style="stop-opacity:1; stop-color:white"/>
   <stop offset="1" style="stop-opacity:0; stop-color:white"/>
  </linearGradient>
     <rect style="fill:url(#id47)" x="801" y="814" width="104" height="104"/>
    </mask>
    <mask id="id48">
  <linearGradient id="id49" gradientUnits="userSpaceOnUse" x1="62.6355" y1="51.3295" x2="1368.24" y2="1694.44">
   <stop offset="0" style="stop-opacity:1; stop-color:white"/>
   <stop offset="1" style="stop-opacity:0; stop-color:white"/>
  </linearGradient>
     <rect style="fill:url(#id49)" y="1084" width="104" height="104"/>
    </mask>
    <mask id="id50">
  <linearGradient id="id51" gradientUnits="userSpaceOnUse" x1="62.6355" y1="51.3295" x2="1368.24" y2="1694.44">
   <stop offset="0" style="stop-opacity:1; stop-color:white"/>
   <stop offset="1" style="stop-opacity:0; stop-color:white"/>
  </linearGradient>
     <rect style="fill:url(#id51)" y="1357" width="104" height="104"/>
    </mask>
    <mask id="id52">
  <linearGradient id="id53" gradientUnits="userSpaceOnUse" x1="62.6355" y1="51.3295" x2="1368.24" y2="1694.44">
   <stop offset="0" style="stop-opacity:1; stop-color:white"/>
   <stop offset="1" style="stop-opacity:0; stop-color:white"/>
  </linearGradient>
     <rect style="fill:url(#id53)" x="265" y="1084" width="104" height="104"/>
    </mask>
    <mask id="id54">
  <linearGradient id="id55" gradientUnits="userSpaceOnUse" x1="62.6355" y1="51.3295" x2="1368.24" y2="1694.44">
   <stop offset="0" style="stop-opacity:1; stop-color:white"/>
   <stop offset="1" style="stop-opacity:0; stop-color:white"/>
  </linearGradient>
     <rect style="fill:url(#id55)" x="265" y="1357" width="104" height="104"/>
    </mask>
    <mask id="id56">
  <linearGradient id="id57" gradientUnits="userSpaceOnUse" x1="62.6355" y1="51.3295" x2="1368.24" y2="1694.44">
   <stop offset="0" style="stop-opacity:1; stop-color:white"/>
   <stop offset="1" style="stop-opacity:0; stop-color:white"/>
  </linearGradient>
     <rect style="fill:url(#id57)" x="1073" y="1084" width="104" height="104"/>
    </mask>
    <mask id="id58">
  <linearGradient id="id59" gradientUnits="userSpaceOnUse" x1="62.6355" y1="51.3295" x2="1368.24" y2="1694.44">
   <stop offset="0" style="stop-opacity:1; stop-color:white"/>
   <stop offset="1" style="stop-opacity:0; stop-color:white"/>
  </linearGradient>
     <rect style="fill:url(#id59)" x="1073" y="1357" width="104" height="104"/>
    </mask>
    <mask id="id60">
  <linearGradient id="id61" gradientUnits="userSpaceOnUse" x1="62.6355" y1="51.3295" x2="1368.24" y2="1694.44">
   <stop offset="0" style="stop-opacity:1; stop-color:white"/>
   <stop offset="1" style="stop-opacity:0; stop-color:white"/>
  </linearGradient>
     <rect style="fill:url(#id61)" x="1338" y="1084" width="104" height="104"/>
    </mask>
    <mask id="id62">
  <linearGradient id="id63" gradientUnits="userSpaceOnUse" x1="62.6355" y1="51.3295" x2="1368.24" y2="1694.44">
   <stop offset="0" style="stop-opacity:1; stop-color:white"/>
   <stop offset="1" style="stop-opacity:0; stop-color:white"/>
  </linearGradient>
     <rect style="fill:url(#id63)" x="1338" y="1357" width="104" height="104"/>
    </mask>
    <mask id="id64">
  <linearGradient id="id65" gradientUnits="userSpaceOnUse" x1="62.6355" y1="51.3295" x2="1368.24" y2="1694.44">
   <stop offset="0" style="stop-opacity:1; stop-color:white"/>
   <stop offset="1" style="stop-opacity:0; stop-color:white"/>
  </linearGradient>
     <rect style="fill:url(#id65)" x="536" y="1084" width="104" height="104"/>
    </mask>
    <mask id="id66">
  <linearGradient id="id67" gradientUnits="userSpaceOnUse" x1="62.6355" y1="51.3295" x2="1368.24" y2="1694.44">
   <stop offset="0" style="stop-opacity:1; stop-color:white"/>
   <stop offset="1" style="stop-opacity:0; stop-color:white"/>
  </linearGradient>
     <rect style="fill:url(#id67)" x="536" y="1357" width="104" height="104"/>
    </mask>
    <mask id="id68">
  <linearGradient id="id69" gradientUnits="userSpaceOnUse" x1="62.6355" y1="51.3295" x2="1368.24" y2="1694.44">
   <stop offset="0" style="stop-opacity:1; stop-color:white"/>
   <stop offset="1" style="stop-opacity:0; stop-color:white"/>
  </linearGradient>
     <rect style="fill:url(#id69)" x="801" y="1084" width="104" height="104"/>
    </mask>
    <mask id="id70">
  <linearGradient id="id71" gradientUnits="userSpaceOnUse" x1="62.6355" y1="51.3295" x2="1368.24" y2="1694.44">
   <stop offset="0" style="stop-opacity:1; stop-color:white"/>
   <stop offset="1" style="stop-opacity:0; stop-color:white"/>
  </linearGradient>
     <rect style="fill:url(#id71)" x="801" y="1357" width="104" height="104"/>
    </mask>
  <linearGradient id="id72" gradientUnits="userSpaceOnUse" x1="471.196" y1="424.36" x2="2602.8" y2="3053.33">
   <stop offset="0" style="stop-opacity:1; stop-color:#1D69B2"/>
   <stop offset="1" style="stop-opacity:1; stop-color:white"/>
  </linearGradient>
  <linearGradient id="id73" gradientUnits="userSpaceOnUse" xlink:href="#id72" x1="471.196" y1="424.36" x2="2602.8" y2="3053.33">
  </linearGradient>
  <linearGradient id="id74" gradientUnits="userSpaceOnUse" xlink:href="#id72" x1="471.196" y1="424.36" x2="2602.8" y2="3053.33">
  </linearGradient>
  <linearGradient id="id75" gradientUnits="userSpaceOnUse" xlink:href="#id72" x1="471.196" y1="424.36" x2="2602.8" y2="3053.33">
  </linearGradient>
  <linearGradient id="id76" gradientUnits="userSpaceOnUse" xlink:href="#id72" x1="471.196" y1="424.36" x2="2602.8" y2="3053.33">
  </linearGradient>
  <linearGradient id="id77" gradientUnits="userSpaceOnUse" xlink:href="#id72" x1="471.196" y1="424.36" x2="2602.8" y2="3053.33">
  </linearGradient>
  <linearGradient id="id78" gradientUnits="userSpaceOnUse" xlink:href="#id72" x1="471.196" y1="424.36" x2="2602.8" y2="3053.33">
  </linearGradient>
  <linearGradient id="id79" gradientUnits="userSpaceOnUse" xlink:href="#id72" x1="471.196" y1="424.36" x2="2602.8" y2="3053.33">
  </linearGradient>
  <linearGradient id="id80" gradientUnits="userSpaceOnUse" xlink:href="#id72" x1="471.196" y1="424.36" x2="2602.8" y2="3053.33">
  </linearGradient>
  <linearGradient id="id81" gradientUnits="userSpaceOnUse" xlink:href="#id72" x1="471.196" y1="424.36" x2="2602.8" y2="3053.33">
  </linearGradient>
  <linearGradient id="id82" gradientUnits="userSpaceOnUse" xlink:href="#id72" x1="471.196" y1="424.36" x2="2602.8" y2="3053.33">
  </linearGradient>
  <linearGradient id="id83" gradientUnits="userSpaceOnUse" xlink:href="#id72" x1="471.196" y1="424.36" x2="2602.8" y2="3053.33">
  </linearGradient>
  <linearGradient id="id84" gradientUnits="userSpaceOnUse" xlink:href="#id72" x1="471.196" y1="424.36" x2="2602.8" y2="3053.33">
  </linearGradient>
  <linearGradient id="id85" gradientUnits="userSpaceOnUse" xlink:href="#id72" x1="471.196" y1="424.36" x2="2602.8" y2="3053.33">
  </linearGradient>
  <linearGradient id="id86" gradientUnits="userSpaceOnUse" xlink:href="#id72" x1="471.196" y1="424.36" x2="2602.8" y2="3053.33">
  </linearGradient>
  <linearGradient id="id87" gradientUnits="userSpaceOnUse" xlink:href="#id72" x1="471.196" y1="424.36" x2="2602.8" y2="3053.33">
  </linearGradient>
  <linearGradient id="id88" gradientUnits="userSpaceOnUse" xlink:href="#id72" x1="471.196" y1="424.36" x2="2602.8" y2="3053.33">
  </linearGradient>
  <linearGradient id="id89" gradientUnits="userSpaceOnUse" xlink:href="#id72" x1="471.196" y1="424.36" x2="2602.8" y2="3053.33">
  </linearGradient>
  <linearGradient id="id90" gradientUnits="userSpaceOnUse" xlink:href="#id72" x1="471.196" y1="424.36" x2="2602.8" y2="3053.33">
  </linearGradient>
  <linearGradient id="id91" gradientUnits="userSpaceOnUse" xlink:href="#id72" x1="471.196" y1="424.36" x2="2602.8" y2="3053.33">
  </linearGradient>
  <linearGradient id="id92" gradientUnits="userSpaceOnUse" xlink:href="#id72" x1="471.196" y1="424.36" x2="2602.8" y2="3053.33">
  </linearGradient>
  <linearGradient id="id93" gradientUnits="userSpaceOnUse" xlink:href="#id72" x1="471.196" y1="424.36" x2="2602.8" y2="3053.33">
  </linearGradient>
  <linearGradient id="id94" gradientUnits="userSpaceOnUse" xlink:href="#id72" x1="471.196" y1="424.36" x2="2602.8" y2="3053.33">
  </linearGradient>
  <linearGradient id="id95" gradientUnits="userSpaceOnUse" xlink:href="#id72" x1="471.196" y1="424.36" x2="2602.8" y2="3053.33">
  </linearGradient>
  <linearGradient id="id96" gradientUnits="userSpaceOnUse" xlink:href="#id72" x1="471.196" y1="424.36" x2="2602.8" y2="3053.33">
  </linearGradient>
  <linearGradient id="id97" gradientUnits="userSpaceOnUse" xlink:href="#id72" x1="471.196" y1="424.36" x2="2602.8" y2="3053.33">
  </linearGradient>
  <linearGradient id="id98" gradientUnits="userSpaceOnUse" xlink:href="#id72" x1="471.196" y1="424.36" x2="2602.8" y2="3053.33">
  </linearGradient>
  <linearGradient id="id99" gradientUnits="userSpaceOnUse" xlink:href="#id72" x1="471.196" y1="424.36" x2="2602.8" y2="3053.33">
  </linearGradient>
  <linearGradient id="id100" gradientUnits="userSpaceOnUse" xlink:href="#id72" x1="471.196" y1="424.36" x2="2602.8" y2="3053.33">
  </linearGradient>
  <linearGradient id="id101" gradientUnits="userSpaceOnUse" xlink:href="#id72" x1="471.196" y1="424.36" x2="2602.8" y2="3053.33">
  </linearGradient>
  <linearGradient id="id102" gradientUnits="userSpaceOnUse" xlink:href="#id72" x1="471.196" y1="424.36" x2="2602.8" y2="3053.33">
  </linearGradient>
  <linearGradient id="id103" gradientUnits="userSpaceOnUse" xlink:href="#id72" x1="471.196" y1="424.36" x2="2602.8" y2="3053.33">
  </linearGradient>
  <linearGradient id="id104" gradientUnits="userSpaceOnUse" xlink:href="#id72" x1="471.196" y1="424.36" x2="2602.8" y2="3053.33">
  </linearGradient>
  <linearGradient id="id105" gradientUnits="userSpaceOnUse" xlink:href="#id72" x1="471.196" y1="424.36" x2="2602.8" y2="3053.33">
  </linearGradient>
  <linearGradient id="id106" gradientUnits="userSpaceOnUse" xlink:href="#id72" x1="471.196" y1="424.36" x2="2602.8" y2="3053.33">
  </linearGradient>
  <linearGradient id="id107" gradientUnits="userSpaceOnUse" xlink:href="#id72" x1="471.196" y1="424.36" x2="2602.8" y2="3053.33">
  </linearGradient>
 </defs>
 <g id="Layer_x0020_1">
  <metadata id="CorelCorpID_0Corel-Layer"/>
  <g id="_2926504075728">
   <path class="fil0" style="mask:url(#id0)" d="M104 52c0,29 -23,52 -52,52 -29,0 -52,-23 -52,-52 0,-29 23,-52 52,-52 29,0 52,23 52,52z"/>
   <path class="fil1" style="mask:url(#id2)" d="M104 324c0,29 -23,53 -52,53 -29,0 -52,-24 -52,-53 0,-28 23,-52 52,-52 29,0 52,24 52,52z"/>
   <path class="fil2" style="mask:url(#id4)" d="M369 52c0,29 -23,52 -52,52 -28,0 -52,-23 -52,-52 0,-29 24,-52 52,-52 29,0 52,23 52,52z"/>
   <path class="fil3" style="mask:url(#id6)" d="M369 324c0,29 -23,53 -52,53 -28,0 -52,-24 -52,-53 0,-28 24,-52 52,-52 29,0 52,24 52,52z"/>
   <path class="fil4" style="mask:url(#id8)" d="M1177 52c0,29 -24,52 -52,52 -29,0 -52,-23 -52,-52 0,-29 23,-52 52,-52 28,0 52,23 52,52z"/>
   <path class="fil5" style="mask:url(#id10)" d="M1177 324c0,29 -24,53 -52,53 -29,0 -52,-24 -52,-53 0,-28 23,-52 52,-52 28,0 52,24 52,52z"/>
   <path class="fil6" style="mask:url(#id12)" d="M1442 52c0,29 -23,52 -52,52 -29,0 -52,-23 -52,-52 0,-29 23,-52 52,-52 29,0 52,23 52,52z"/>
   <path class="fil7" style="mask:url(#id14)" d="M1442 324c0,29 -23,53 -52,53 -29,0 -52,-24 -52,-53 0,-28 23,-52 52,-52 29,0 52,24 52,52z"/>
   <path class="fil8" style="mask:url(#id16)" d="M640 52c0,29 -23,52 -52,52 -29,0 -52,-23 -52,-52 0,-29 23,-52 52,-52 29,0 52,23 52,52z"/>
   <path class="fil9" style="mask:url(#id18)" d="M640 324c0,29 -23,53 -52,53 -29,0 -52,-24 -52,-53 0,-28 23,-52 52,-52 29,0 52,24 52,52z"/>
   <path class="fil10" style="mask:url(#id20)" d="M905 52c0,29 -23,52 -52,52 -29,0 -52,-23 -52,-52 0,-29 23,-52 52,-52 29,0 52,23 52,52z"/>
   <path class="fil11" style="mask:url(#id22)" d="M905 324c0,29 -23,53 -52,53 -29,0 -52,-24 -52,-53 0,-28 23,-52 52,-52 29,0 52,24 52,52z"/>
   <path class="fil12" style="mask:url(#id24)" d="M104 594c0,29 -23,52 -52,52 -29,0 -52,-23 -52,-52 0,-29 23,-52 52,-52 29,0 52,23 52,52z"/>
   <path class="fil13" style="mask:url(#id26)" d="M104 867c0,28 -23,52 -52,52 -29,0 -52,-24 -52,-52 0,-29 23,-53 52,-53 29,0 52,24 52,53z"/>
   <path class="fil14" style="mask:url(#id28)" d="M369 594c0,29 -23,52 -52,52 -28,0 -52,-23 -52,-52 0,-29 24,-52 52,-52 29,0 52,23 52,52z"/>
   <path class="fil15" style="mask:url(#id30)" d="M369 867c0,28 -23,52 -52,52 -28,0 -52,-24 -52,-52 0,-29 24,-53 52,-53 29,0 52,24 52,53z"/>
   <path class="fil16" style="mask:url(#id32)" d="M1177 594c0,29 -24,52 -52,52 -29,0 -52,-23 -52,-52 0,-29 23,-52 52,-52 28,0 52,23 52,52z"/>
   <path class="fil17" style="mask:url(#id34)" d="M1177 867c0,28 -24,52 -52,52 -29,0 -52,-24 -52,-52 0,-29 23,-53 52,-53 28,0 52,24 52,53z"/>
   <path class="fil18" style="mask:url(#id36)" d="M1442 594c0,29 -23,52 -52,52 -29,0 -52,-23 -52,-52 0,-29 23,-52 52,-52 29,0 52,23 52,52z"/>
   <path class="fil19" style="mask:url(#id38)" d="M1442 867c0,28 -23,52 -52,52 -29,0 -52,-24 -52,-52 0,-29 23,-53 52,-53 29,0 52,24 52,53z"/>
   <path class="fil20" style="mask:url(#id40)" d="M640 594c0,29 -23,52 -52,52 -29,0 -52,-23 -52,-52 0,-29 23,-52 52,-52 29,0 52,23 52,52z"/>
   <path class="fil21" style="mask:url(#id42)" d="M640 867c0,28 -23,52 -52,52 -29,0 -52,-24 -52,-52 0,-29 23,-53 52,-53 29,0 52,24 52,53z"/>
   <path class="fil22" style="mask:url(#id44)" d="M905 594c0,29 -23,52 -52,52 -29,0 -52,-23 -52,-52 0,-29 23,-52 52,-52 29,0 52,23 52,52z"/>
   <path class="fil23" style="mask:url(#id46)" d="M905 867c0,28 -23,52 -52,52 -29,0 -52,-24 -52,-52 0,-29 23,-53 52,-53 29,0 52,24 52,53z"/>
   <path class="fil24" style="mask:url(#id48)" d="M104 1136c0,29 -23,53 -52,53 -29,0 -52,-24 -52,-53 0,-28 23,-52 52,-52 29,0 52,24 52,52z"/>
   <path class="fil25" style="mask:url(#id50)" d="M104 1409c0,29 -23,52 -52,52 -29,0 -52,-23 -52,-52 0,-29 23,-52 52,-52 29,0 52,23 52,52z"/>
   <path class="fil26" style="mask:url(#id52)" d="M369 1136c0,29 -23,53 -52,53 -28,0 -52,-24 -52,-53 0,-28 24,-52 52,-52 29,0 52,24 52,52z"/>
   <path class="fil27" style="mask:url(#id54)" d="M369 1409c0,29 -23,52 -52,52 -28,0 -52,-23 -52,-52 0,-29 24,-52 52,-52 29,0 52,23 52,52z"/>
   <path class="fil28" style="mask:url(#id56)" d="M1177 1136c0,29 -24,53 -52,53 -29,0 -52,-24 -52,-53 0,-28 23,-52 52,-52 28,0 52,24 52,52z"/>
   <path class="fil29" style="mask:url(#id58)" d="M1177 1409c0,29 -24,52 -52,52 -29,0 -52,-23 -52,-52 0,-29 23,-52 52,-52 28,0 52,23 52,52z"/>
   <path class="fil30" style="mask:url(#id60)" d="M1442 1136c0,29 -23,53 -52,53 -29,0 -52,-24 -52,-53 0,-28 23,-52 52,-52 29,0 52,24 52,52z"/>
   <path class="fil31" style="mask:url(#id62)" d="M1442 1409c0,29 -23,52 -52,52 -29,0 -52,-23 -52,-52 0,-29 23,-52 52,-52 29,0 52,23 52,52z"/>
   <path class="fil32" style="mask:url(#id64)" d="M640 1136c0,29 -23,53 -52,53 -29,0 -52,-24 -52,-53 0,-28 23,-52 52,-52 29,0 52,24 52,52z"/>
   <path class="fil33" style="mask:url(#id66)" d="M640 1409c0,29 -23,52 -52,52 -29,0 -52,-23 -52,-52 0,-29 23,-52 52,-52 29,0 52,23 52,52z"/>
   <path class="fil34" style="mask:url(#id68)" d="M905 1136c0,29 -23,53 -52,53 -29,0 -52,-24 -52,-53 0,-28 23,-52 52,-52 29,0 52,24 52,52z"/>
   <path class="fil35" style="mask:url(#id70)" d="M905 1409c0,29 -23,52 -52,52 -29,0 -52,-23 -52,-52 0,-29 23,-52 52,-52 29,0 52,23 52,52z"/>
  </g>
 </g>
</svg>
