<?xml version="1.0" encoding="UTF-8"?>
<!DOCTYPE svg PUBLIC "-//W3C//DTD SVG 1.1//EN" "http://www.w3.org/Graphics/SVG/1.1/DTD/svg11.dtd">
<!-- Creator: CorelDRAW X7 -->
<svg xmlns="http://www.w3.org/2000/svg" xml:space="preserve" width="1280px" height="1062px" version="1.1" style="shape-rendering:geometricPrecision; text-rendering:geometricPrecision; image-rendering:optimizeQuality; fill-rule:evenodd; clip-rule:evenodd"
viewBox="0 0 321 266"
 xmlns:xlink="http://www.w3.org/1999/xlink">
 <defs>
  <style type="text/css">
   <![CDATA[
    .fil4 {fill:#FFF1AA}
    .fil1 {fill:#69C5D1}
    .fil2 {fill:#4CBDC5}
    .fil3 {fill:#2353A2}
    .fil0 {fill:#035884}
   ]]>
  </style>
 </defs>
 <g id="Layer_x0020_1">
  <metadata id="CorelCorpID_0Corel-Layer"/>
  <path class="fil0" d="M14 125c0,2 -1,3 -3,3 -2,0 -4,-1 -4,-3 0,-2 2,-4 4,-4 2,0 3,2 3,4z"/>
  <path class="fil0" d="M14 143c0,2 -1,4 -3,4 -2,0 -4,-2 -4,-4 0,-2 2,-3 4,-3 2,0 3,1 3,3z"/>
  <path class="fil0" d="M32 125c0,2 -1,3 -3,3 -2,0 -4,-1 -4,-3 0,-2 2,-4 4,-4 2,0 3,2 3,4z"/>
  <path class="fil0" d="M32 143c0,2 -1,4 -3,4 -2,0 -4,-2 -4,-4 0,-2 2,-3 4,-3 2,0 3,1 3,3z"/>
  <path class="fil0" d="M88 125c0,2 -1,3 -3,3 -2,0 -4,-1 -4,-3 0,-2 2,-4 4,-4 2,0 3,2 3,4z"/>
  <path class="fil0" d="M88 143c0,2 -1,4 -3,4 -2,0 -4,-2 -4,-4 0,-2 2,-3 4,-3 2,0 3,1 3,3z"/>
  <path class="fil0" d="M107 125c0,2 -2,3 -4,3 -2,0 -4,-1 -4,-3 0,-2 2,-4 4,-4 2,0 4,2 4,4z"/>
  <path class="fil0" d="M107 143c0,2 -2,4 -4,4 -2,0 -4,-2 -4,-4 0,-2 2,-3 4,-3 2,0 4,1 4,3z"/>
  <path class="fil0" d="M51 125c0,2 -1,3 -3,3 -2,0 -4,-1 -4,-3 0,-2 2,-4 4,-4 2,0 3,2 3,4z"/>
  <path class="fil0" d="M51 143c0,2 -1,4 -3,4 -2,0 -4,-2 -4,-4 0,-2 2,-3 4,-3 2,0 3,1 3,3z"/>
  <path class="fil0" d="M70 125c0,2 -2,3 -4,3 -2,0 -4,-1 -4,-3 0,-2 2,-4 4,-4 2,0 4,2 4,4z"/>
  <path class="fil0" d="M70 143c0,2 -2,4 -4,4 -2,0 -4,-2 -4,-4 0,-2 2,-3 4,-3 2,0 4,1 4,3z"/>
  <polygon class="fil1" points="107,266 107,159 0,159 0,266 "/>
  <path class="fil1" d="M213 159l0 0 -106 0 0 107c59,0 106,-48 106,-107z"/>
  <polygon class="fil2" points="107,53 213,159 213,53 "/>
  <polygon class="fil3" points="0,159 107,266 107,159 "/>
  <polygon class="fil4" points="107,0 107,53 54,53 54,0 "/>
  <polygon class="fil4" points="321,213 321,266 268,266 268,213 "/>
  <path class="fil0" d="M230 25c0,2 -1,4 -3,4 -2,0 -4,-2 -4,-4 0,-2 2,-3 4,-3 2,0 3,1 3,3z"/>
  <path class="fil0" d="M230 44c0,2 -1,4 -3,4 -2,0 -4,-2 -4,-4 0,-2 2,-3 4,-3 2,0 3,1 3,3z"/>
  <path class="fil0" d="M249 25c0,2 -2,4 -4,4 -2,0 -3,-2 -3,-4 0,-2 1,-3 3,-3 2,0 4,1 4,3z"/>
  <path class="fil0" d="M249 44c0,2 -2,4 -4,4 -2,0 -3,-2 -3,-4 0,-2 1,-3 3,-3 2,0 4,1 4,3z"/>
 </g>
</svg>
